<svg width="0" height="0" class="hidden">
  <symbol  xmlns="http://www.w3.org/2000/svg" viewBox="0 0 200 215" id="rock">
    <path d="M184.62 85.9684V27.5183C184.62 22.1557 182.49 17.0126 178.698 13.2206C174.906 9.42866 169.763 7.29834 164.4 7.29834C159.037 7.29834 153.894 9.42866 150.102 13.2206C146.31 17.0126 144.18 22.1557 144.18 27.5183V29.3383C144.245 26.1659 143.676 23.0124 142.507 20.0625C141.338 17.1126 139.592 14.4256 137.371 12.1591C135.151 9.89247 132.5 8.09178 129.575 6.86249C126.649 5.63319 123.508 5 120.335 5C117.162 5 114.021 5.63319 111.095 6.86249C108.17 8.09178 105.519 9.89247 103.299 12.1591C101.078 14.4256 99.332 17.1126 98.1629 20.0625C96.9938 23.0124 96.425 26.1659 96.49 29.3383V29.0783C96.5546 25.9402 95.9923 22.8208 94.8361 19.9028C93.6799 16.9847 91.9529 14.3268 89.7565 12.0846C87.56 9.84246 84.9382 8.06118 82.0446 6.84512C79.1509 5.62906 76.0437 5.00269 72.905 5.00269C69.7662 5.00269 66.659 5.62906 63.7654 6.84512C60.8718 8.06118 58.2499 9.84246 56.0535 12.0846C53.857 14.3268 52.1301 16.9847 50.9739 19.9028C49.8176 22.8208 49.2553 25.9402 49.3199 29.0783V57.7083C49.3199 51.8311 46.9853 46.1947 42.8295 42.0388C38.6737 37.883 33.0372 35.5483 27.16 35.5483C21.2828 35.5483 15.6463 37.883 11.4905 42.0388C7.33467 46.1947 5 51.8311 5 57.7083V128.908C5 150.428 13.5486 171.066 28.7653 186.283C43.982 201.5 64.6203 210.048 86.14 210.048H97.35C123.17 210.048 147.932 199.792 166.19 181.536C184.449 163.279 194.707 138.518 194.71 112.698C194.725 102.855 191.136 93.3466 184.62 85.9684V85.9684Z" fill="white"></path>
    <path d="M27.16 108.868C21.2828 108.868 15.6463 106.534 11.4905 102.378C7.33467 98.222 5 92.5855 5 86.7083V57.7083C5 51.8311 7.33467 46.1947 11.4905 42.0388C15.6463 37.883 21.2828 35.5483 27.16 35.5483V35.5483C33.0372 35.5483 38.6737 37.883 42.8295 42.0388C46.9853 46.1947 49.3199 51.8311 49.3199 57.7083V86.7083C49.3199 92.5855 46.9853 98.222 42.8295 102.378C38.6737 106.534 33.0372 108.868 27.16 108.868Z"  stroke-width="9.33" stroke-linecap="round" stroke-linejoin="round"></path>
    <path d="M194.711 112.698C194.711 101.96 190.445 91.6609 182.852 84.0675C175.258 76.4742 164.959 72.2083 154.221 72.2083H57.2208C55.1193 72.2109 53.1049 73.0475 51.6199 74.5344C50.1349 76.0213 49.3008 78.0368 49.3008 80.1382V85.1382C49.3008 94.4553 53.0019 103.391 59.5901 109.979C66.1782 116.567 75.1137 120.268 84.4308 120.268H132.551"  stroke-width="9.33" stroke-linecap="round" stroke-linejoin="round"></path>
    <path d="M96.4902 29.3384V72.2084"  stroke-width="9.33" stroke-linecap="round" stroke-linejoin="round"></path>
    <path d="M184.62 85.9684V27.5183C184.62 22.1557 182.49 17.0126 178.698 13.2206C174.906 9.42866 169.763 7.29834 164.4 7.29834C159.037 7.29834 153.894 9.42866 150.102 13.2206C146.31 17.0126 144.18 22.1557 144.18 27.5183V29.3383C144.245 26.1659 143.676 23.0124 142.507 20.0625C141.338 17.1126 139.592 14.4256 137.371 12.1591C135.151 9.89247 132.5 8.09178 129.575 6.86249C126.649 5.63319 123.508 5 120.335 5C117.162 5 114.021 5.63319 111.095 6.86249C108.17 8.09178 105.519 9.89247 103.299 12.1591C101.078 14.4256 99.332 17.1126 98.1629 20.0625C96.9938 23.0124 96.425 26.1659 96.49 29.3383V29.0783C96.5546 25.9402 95.9923 22.8208 94.8361 19.9028C93.6799 16.9847 91.9529 14.3268 89.7565 12.0846C87.56 9.84246 84.9382 8.06118 82.0446 6.84512C79.1509 5.62906 76.0437 5.00269 72.905 5.00269C69.7662 5.00269 66.659 5.62906 63.7654 6.84512C60.8718 8.06118 58.2499 9.84246 56.0535 12.0846C53.857 14.3268 52.1301 16.9847 50.9739 19.9028C49.8176 22.8208 49.2553 25.9402 49.3199 29.0783V57.7083C49.3199 51.8311 46.9853 46.1947 42.8295 42.0388C38.6737 37.883 33.0372 35.5483 27.16 35.5483C21.2828 35.5483 15.6463 37.883 11.4905 42.0388C7.33467 46.1947 5 51.8311 5 57.7083V128.908C5 150.428 13.5486 171.066 28.7653 186.283C43.982 201.5 64.6203 210.048 86.14 210.048H97.35C123.17 210.048 147.932 199.792 166.19 181.536C184.449 163.279 194.707 138.518 194.71 112.698C194.725 102.855 191.136 93.3466 184.62 85.9684V85.9684Z"  stroke-width="9.33" stroke-linecap="round" stroke-linejoin="round"></path>
    <path d="M144.18 29.3384V72.2084"  stroke-width="9.33" stroke-linecap="round" stroke-linejoin="round"></path>
    <path d="M132.02 120.228C126.894 120.228 121.818 121.239 117.083 123.202C112.348 125.165 108.047 128.042 104.425 131.669C100.803 135.296 97.9309 139.601 95.9739 144.338C94.0169 149.076 93.013 154.153 93.0196 159.278V170.818"  stroke-width="9.33" stroke-linecap="round" stroke-linejoin="round"></path>
  </symbol>
  <symbol  xmlns="http://www.w3.org/2000/svg" viewBox="0 0 208 253" id="paper">
    <path d="M161.05 141.942L147.05 155.092V42.0016C147.05 32.2816 139.81 23.2816 129.28 23.2816C124.577 23.2948 120.071 25.1732 116.75 28.5046C113.43 31.8359 111.567 36.3482 111.57 41.0516V25.0016C111.57 14.7916 103.98 5.00156 92.5699 5.00156C90.0726 4.99364 87.5983 5.47971 85.2896 6.43174C82.9808 7.38377 80.8831 8.78297 79.1172 10.5489C77.3513 12.3148 75.9521 14.4125 75.0001 16.7212C74.048 19.03 73.562 21.5042 73.5699 24.0016V22.8716C73.6198 20.523 73.1963 18.1884 72.3247 16.007C71.4532 13.8256 70.1513 11.842 68.4968 10.1744C66.8423 8.50684 64.869 7.18941 62.6945 6.3007C60.52 5.41199 58.1888 4.97016 55.8399 5.00156C53.5059 5.00025 51.1946 5.45898 49.0381 6.35154C46.8815 7.2441 44.9221 8.55299 43.2717 10.2033C41.6213 11.8537 40.3125 13.8132 39.4199 15.9697C38.5273 18.1263 38.0686 20.4376 38.0699 22.7716V52.7716C38.0673 48.6412 36.4246 44.681 33.5031 41.7613C30.5816 38.8417 26.6203 37.2016 22.4899 37.2016C13.1499 37.2016 6.91992 44.8516 6.91992 53.4016V181.212C6.91992 217.632 36.2599 247.652 72.6999 247.652C87.1511 247.65 101.441 244.616 114.646 238.746C127.851 232.875 139.677 224.299 149.36 213.572L202.36 156.052C204.073 154.196 205 151.748 204.946 149.223C204.891 146.698 203.861 144.292 202.07 142.512C196.639 137.12 189.327 134.047 181.675 133.941C174.023 133.834 166.629 136.703 161.05 141.942V141.942Z" fill="white"></path>
    <path d="M36.0898 52.7515V113.711"  stroke-width="9.33" stroke-linecap="round" stroke-linejoin="round"></path>
    <path d="M71.6299 23.9717V113.712"  stroke-width="9.33" stroke-linecap="round" stroke-linejoin="round"></path>
    <path d="M109.54 41.0518V113.712"  stroke-width="9.33" stroke-linecap="round" stroke-linejoin="round"></path>
    <path d="M145.09 155.092H109.09C102.95 155.086 96.8813 156.407 91.2994 158.965C85.7176 161.523 80.7545 165.257 76.75 169.912"  stroke-width="9.33" stroke-linecap="round" stroke-linejoin="round"></path>
    <path d="M159.08 141.941L145.08 155.091V42.0014C145.08 32.2814 137.84 23.2815 127.3 23.2815C122.594 23.2921 118.084 25.1689 114.761 28.5003C111.437 31.8317 109.57 36.3455 109.57 41.0514V25.0014C109.57 14.7914 101.99 5.00144 90.57 5.00144C85.5309 5.00144 80.6982 7.00319 77.135 10.5664C73.5718 14.1296 71.57 18.9623 71.57 24.0014V22.8714C71.6212 20.5242 71.1993 18.1907 70.3295 16.01C69.4596 13.8293 68.1596 11.846 66.507 10.1784C64.8543 8.51085 62.8828 7.19305 60.71 6.30362C58.5372 5.41419 56.2076 4.97135 53.86 5.00144C49.1471 5.00144 44.6272 6.87363 41.2947 10.2061C37.9622 13.5387 36.09 18.0586 36.09 22.7715V52.7715C36.0953 48.6472 34.4641 44.6893 31.5544 41.7665C28.6447 38.8437 24.6942 37.1947 20.57 37.1814C11.23 37.1814 5 44.8314 5 53.3814V181.211C5 217.631 34.34 247.651 70.78 247.651C106.38 247.651 127.86 235.261 147.44 213.571L200.44 156.051C202.154 154.195 203.08 151.747 203.025 149.221C202.969 146.695 201.934 144.29 200.14 142.511V142.511C194.71 137.103 187.389 134.02 179.725 133.913C172.062 133.807 164.658 136.686 159.08 141.941V141.941Z"  stroke-width="9.33" stroke-linecap="round" stroke-linejoin="round"></path>
  </symbol>
  <symbol  xmlns="http://www.w3.org/2000/svg" viewBox="0 0 185 288" id="scissor">
    <path d="M162.83 5.19272C160.265 4.83138 157.654 4.97917 155.146 5.6276C152.638 6.27603 150.283 7.41237 148.215 8.97171C146.146 10.5311 144.406 12.4828 143.092 14.7154C141.779 16.9479 140.918 19.4174 140.56 21.9828L124.84 129.823L109.17 22.3327C108.196 17.3875 105.365 13.003 101.259 10.0797C97.1534 7.15635 92.0841 5.91612 87.0923 6.61368C82.1006 7.31124 77.5655 9.89364 74.4183 13.8305C71.2712 17.7674 69.7509 22.76 70.1698 27.7827L81.5898 109.333C78.5416 106.735 74.8143 105.064 70.8474 104.515C66.8805 103.966 62.8394 104.563 59.2006 106.235C55.5617 107.908 52.4769 110.586 50.3099 113.953C48.1428 117.321 46.9839 121.238 46.9698 125.243V144.173C46.6826 138.805 44.348 133.752 40.4469 130.054C36.5458 126.356 31.3751 124.295 25.9998 124.295C20.6245 124.295 15.4539 126.356 11.5527 130.054C7.6516 133.752 5.317 138.805 5.02979 144.173V201.033C5.02979 242.923 36.6398 279.493 78.4398 282.193C121.5 284.983 162.31 252.483 162.31 201.513C162.31 134.203 162.31 156.693 179.61 27.5127C179.978 24.9447 179.836 22.3293 179.192 19.8163C178.547 17.3034 177.413 14.9423 175.854 12.8687C174.295 10.795 172.342 9.04955 170.107 7.73234C167.872 6.41512 165.399 5.55207 162.83 5.19272Z" fill="white"></path>
    <path d="M109.06 201.483C99.7775 201.483 90.8751 205.17 84.3113 211.734C77.7475 218.298 74.0601 227.2 74.0601 236.483V246.843"  stroke-width="9.33" stroke-linecap="round" stroke-linejoin="round"></path>
    <path d="M162.83 5.19272C160.265 4.83138 157.654 4.97917 155.146 5.6276C152.638 6.27603 150.283 7.41237 148.215 8.97171C146.146 10.5311 144.406 12.4828 143.092 14.7154C141.779 16.9479 140.918 19.4174 140.56 21.9828L124.84 129.823L109.17 22.3327C108.196 17.3875 105.365 13.003 101.259 10.0797C97.1534 7.15635 92.0841 5.91612 87.0923 6.61368C82.1006 7.31124 77.5655 9.89364 74.4183 13.8305C71.2712 17.7674 69.7509 22.76 70.1698 27.7827L81.5898 109.333C78.5416 106.735 74.8143 105.064 70.8474 104.515C66.8805 103.966 62.8394 104.563 59.2006 106.235C55.5617 107.908 52.4769 110.586 50.3099 113.953C48.1428 117.321 46.9839 121.238 46.9698 125.243V144.173C46.6826 138.805 44.348 133.752 40.4469 130.054C36.5458 126.356 31.3751 124.295 25.9998 124.295C20.6245 124.295 15.4539 126.356 11.5527 130.054C7.6516 133.752 5.317 138.805 5.02979 144.173V201.033C5.02979 242.923 36.6398 279.493 78.4398 282.193C121.5 284.983 162.31 252.483 162.31 201.513C162.31 134.203 162.31 156.693 179.61 27.5127C179.978 24.9447 179.836 22.3293 179.192 19.8163C178.547 17.3034 177.413 14.9423 175.854 12.8687C174.295 10.795 172.342 9.04955 170.107 7.73234C167.872 6.41512 165.399 5.55207 162.83 5.19272Z"  stroke-width="9.33" stroke-linecap="round" stroke-linejoin="round"></path>
    <path d="M26 123.173C20.4305 123.173 15.089 125.385 11.1508 129.324C7.21249 133.262 5 138.603 5 144.173V169.783C5 175.352 7.21249 180.694 11.1508 184.632C15.089 188.57 20.4305 190.783 26 190.783V190.783C31.5695 190.783 36.911 188.57 40.8492 184.632C44.7875 180.694 47 175.352 47 169.783V144.143C46.9921 138.578 44.776 133.245 40.8386 129.313C36.9012 125.381 31.5644 123.173 26 123.173V123.173Z" fill="white"></path>
    <path d="M67.9399 104.243C62.3704 104.243 57.029 106.455 53.0907 110.393C49.1524 114.332 46.9399 119.673 46.9399 125.243V169.783C46.9399 175.352 49.1524 180.694 53.0907 184.632C57.029 188.57 62.3704 190.783 67.9399 190.783V190.783C73.5095 190.783 78.8509 188.57 82.7892 184.632C86.7274 180.694 88.9399 175.352 88.9399 169.783V125.213C88.932 119.648 86.716 114.315 82.7786 110.383C78.8412 106.451 73.5043 104.243 67.9399 104.243V104.243Z" fill="white"></path>
    <path d="M26 123.173C20.4305 123.173 15.089 125.385 11.1508 129.324C7.21249 133.262 5 138.603 5 144.173V169.783C5 175.352 7.21249 180.694 11.1508 184.632C15.089 188.57 20.4305 190.783 26 190.783V190.783C31.5695 190.783 36.911 188.57 40.8492 184.632C44.7875 180.694 47 175.352 47 169.783V144.143C46.9921 138.578 44.776 133.245 40.8386 129.313C36.9012 125.381 31.5644 123.173 26 123.173V123.173Z"  stroke-width="9.33" stroke-linecap="round" stroke-linejoin="round"></path>
    <path d="M67.9399 104.243C62.3704 104.243 57.029 106.455 53.0907 110.393C49.1524 114.332 46.9399 119.673 46.9399 125.243V169.783C46.9399 175.352 49.1524 180.694 53.0907 184.632C57.029 188.57 62.3704 190.783 67.9399 190.783V190.783C73.5095 190.783 78.8509 188.57 82.7892 184.632C86.7274 180.694 88.9399 175.352 88.9399 169.783V125.213C88.932 119.648 86.716 114.315 82.7786 110.383C78.8412 106.451 73.5043 104.243 67.9399 104.243V104.243Z"  stroke-width="9.33" stroke-linecap="round" stroke-linejoin="round"></path>
    <path d="M162.31 201.483C162.31 190.63 157.999 180.222 150.325 172.548C142.651 164.874 132.242 160.563 121.39 160.563H57.6698C56.2454 160.561 54.8348 160.841 53.5184 161.385C52.2021 161.929 51.0059 162.727 49.9983 163.734C48.9906 164.741 48.1913 165.936 47.6459 167.252C47.1005 168.568 46.8198 169.978 46.8198 171.403V171.403C46.8198 179.38 49.9889 187.031 55.63 192.673C61.2711 198.314 68.9221 201.483 76.8998 201.483H109.06" fill="white"></path>
    <path d="M162.31 201.483C162.31 190.63 157.999 180.222 150.325 172.548C142.651 164.874 132.242 160.563 121.39 160.563H57.6698C56.2454 160.561 54.8348 160.841 53.5184 161.385C52.2021 161.929 51.0059 162.727 49.9983 163.734C48.9906 164.741 48.1913 165.936 47.6459 167.252C47.1005 168.568 46.8198 169.978 46.8198 171.403V171.403C46.8198 179.38 49.9889 187.031 55.63 192.673C61.2711 198.314 68.9221 201.483 76.8998 201.483H109.06"  stroke-width="9.33" stroke-linecap="round" stroke-linejoin="round"></path>
  </symbol>
    <symbol stroke-linecap="round" stroke-linejoin="round" stroke-width="1.5" xmlns="http://www.w3.org/2000/svg" viewBox="0 0 24 24" id="settings">
    <path d="M10.325 4.317c.426-1.756 2.924-1.756 3.35 0a1.724 1.724 0 0 0 2.573 1.066c1.543-.94 3.31.826 2.37 2.37a1.724 1.724 0 0 0 1.065 2.572c1.756.426 1.756 2.924 0 3.35a1.724 1.724 0 0 0-1.066 2.573c.94 1.543-.826 3.31-2.37 2.37a1.724 1.724 0 0 0-2.572 1.065c-.426 1.756-2.924 1.756-3.35 0a1.723 1.723 0 0 0-2.573-1.066c-1.543.94-3.31-.826-2.37-2.37a1.724 1.724 0 0 0-1.065-2.572c-1.756-.426-1.756-2.924 0-3.35a1.724 1.724 0 0 0 1.066-2.573c-.94-1.543.826-3.31 2.37-2.37 1 .608 2.296.07 2.572-1.065Z"></path>
    <path d="M12 15a3 3 0 1 0 0-6 3 3 0 0 0 0 6Z"></path>
  </symbol>
  <symbol stroke-linecap="round" stroke-linejoin="round" stroke-width="1.5" xmlns="http://www.w3.org/2000/svg" viewBox="0 0 24 24" id="menu">
    <path d="M4 6h16"></path>
    <path d="M4 12h16"></path>
    <path d="M4 18h16"></path>
  </symbol>
</svg>