<svg width="0" height="0" class="hidden">
  <symbol  xmlns="http://www.w3.org/2000/svg" viewBox="0 0 200 215" id="rock">
    <path d="M184.62 85.9684V27.5183C184.62 22.1557 182.49 17.0126 178.698 13.2206C174.906 9.42866 169.763 7.29834 164.4 7.29834C159.037 7.29834 153.894 9.42866 150.102 13.2206C146.31 17.0126 144.18 22.1557 144.18 27.5183V29.3383C144.245 26.1659 143.676 23.0124 142.507 20.0625C141.338 17.1126 139.592 14.4256 137.371 12.1591C135.151 9.89247 132.5 8.09178 129.575 6.86249C126.649 5.63319 123.508 5 120.335 5C117.162 5 114.021 5.63319 111.095 6.86249C108.17 8.09178 105.519 9.89247 103.299 12.1591C101.078 14.4256 99.332 17.1126 98.1629 20.0625C96.9938 23.0124 96.425 26.1659 96.49 29.3383V29.0783C96.5546 25.9402 95.9923 22.8208 94.8361 19.9028C93.6799 16.9847 91.9529 14.3268 89.7565 12.0846C87.56 9.84246 84.9382 8.06118 82.0446 6.84512C79.1509 5.62906 76.0437 5.00269 72.905 5.00269C69.7662 5.00269 66.659 5.62906 63.7654 6.84512C60.8718 8.06118 58.2499 9.84246 56.0535 12.0846C53.857 14.3268 52.1301 16.9847 50.9739 19.9028C49.8176 22.8208 49.2553 25.9402 49.3199 29.0783V57.7083C49.3199 51.8311 46.9853 46.1947 42.8295 42.0388C38.6737 37.883 33.0372 35.5483 27.16 35.5483C21.2828 35.5483 15.6463 37.883 11.4905 42.0388C7.33467 46.1947 5 51.8311 5 57.7083V128.908C5 150.428 13.5486 171.066 28.7653 186.283C43.982 201.5 64.6203 210.048 86.14 210.048H97.35C123.17 210.048 147.932 199.792 166.19 181.536C184.449 163.279 194.707 138.518 194.71 112.698C194.725 102.855 191.136 93.3466 184.62 85.9684V85.9684Z" ></path>
    <path d="M27.16 108.868C21.2828 108.868 15.6463 106.534 11.4905 102.378C7.33467 98.222 5 92.5855 5 86.7083V57.7083C5 51.8311 7.33467 46.1947 11.4905 42.0388C15.6463 37.883 21.2828 35.5483 27.16 35.5483V35.5483C33.0372 35.5483 38.6737 37.883 42.8295 42.0388C46.9853 46.1947 49.3199 51.8311 49.3199 57.7083V86.7083C49.3199 92.5855 46.9853 98.222 42.8295 102.378C38.6737 106.534 33.0372 108.868 27.16 108.868Z"  stroke-width="9.33" stroke-linecap="round" stroke-linejoin="round"></path>
    <path d="M194.711 112.698C194.711 101.96 190.445 91.6609 182.852 84.0675C175.258 76.4742 164.959 72.2083 154.221 72.2083H57.2208C55.1193 72.2109 53.1049 73.0475 51.6199 74.5344C50.1349 76.0213 49.3008 78.0368 49.3008 80.1382V85.1382C49.3008 94.4553 53.0019 103.391 59.5901 109.979C66.1782 116.567 75.1137 120.268 84.4308 120.268H132.551"  stroke-width="9.33" stroke-linecap="round" stroke-linejoin="round"></path>
    <path d="M96.4902 29.3384V72.2084"  stroke-width="9.33" stroke-linecap="round" stroke-linejoin="round"></path>
    <path d="M184.62 85.9684V27.5183C184.62 22.1557 182.49 17.0126 178.698 13.2206C174.906 9.42866 169.763 7.29834 164.4 7.29834C159.037 7.29834 153.894 9.42866 150.102 13.2206C146.31 17.0126 144.18 22.1557 144.18 27.5183V29.3383C144.245 26.1659 143.676 23.0124 142.507 20.0625C141.338 17.1126 139.592 14.4256 137.371 12.1591C135.151 9.89247 132.5 8.09178 129.575 6.86249C126.649 5.63319 123.508 5 120.335 5C117.162 5 114.021 5.63319 111.095 6.86249C108.17 8.09178 105.519 9.89247 103.299 12.1591C101.078 14.4256 99.332 17.1126 98.1629 20.0625C96.9938 23.0124 96.425 26.1659 96.49 29.3383V29.0783C96.5546 25.9402 95.9923 22.8208 94.8361 19.9028C93.6799 16.9847 91.9529 14.3268 89.7565 12.0846C87.56 9.84246 84.9382 8.06118 82.0446 6.84512C79.1509 5.62906 76.0437 5.00269 72.905 5.00269C69.7662 5.00269 66.659 5.62906 63.7654 6.84512C60.8718 8.06118 58.2499 9.84246 56.0535 12.0846C53.857 14.3268 52.1301 16.9847 50.9739 19.9028C49.8176 22.8208 49.2553 25.9402 49.3199 29.0783V57.7083C49.3199 51.8311 46.9853 46.1947 42.8295 42.0388C38.6737 37.883 33.0372 35.5483 27.16 35.5483C21.2828 35.5483 15.6463 37.883 11.4905 42.0388C7.33467 46.1947 5 51.8311 5 57.7083V128.908C5 150.428 13.5486 171.066 28.7653 186.283C43.982 201.5 64.6203 210.048 86.14 210.048H97.35C123.17 210.048 147.932 199.792 166.19 181.536C184.449 163.279 194.707 138.518 194.71 112.698C194.725 102.855 191.136 93.3466 184.62 85.9684V85.9684Z"  stroke-width="9.33" stroke-linecap="round" stroke-linejoin="round"></path>
    <path d="M144.18 29.3384V72.2084"  stroke-width="9.33" stroke-linecap="round" stroke-linejoin="round"></path>
    <path d="M132.02 120.228C126.894 120.228 121.818 121.239 117.083 123.202C112.348 125.165 108.047 128.042 104.425 131.669C100.803 135.296 97.9309 139.601 95.9739 144.338C94.0169 149.076 93.013 154.153 93.0196 159.278V170.818"  stroke-width="9.33" stroke-linecap="round" stroke-linejoin="round"></path>
  </symbol>
  <symbol  xmlns="http://www.w3.org/2000/svg" viewBox="0 0 208 253" id="paper">
    <path d="M161.05 141.942L147.05 155.092V42.0016C147.05 32.2816 139.81 23.2816 129.28 23.2816C124.577 23.2948 120.071 25.1732 116.75 28.5046C113.43 31.8359 111.567 36.3482 111.57 41.0516V25.0016C111.57 14.7916 103.98 5.00156 92.5699 5.00156C90.0726 4.99364 87.5983 5.47971 85.2896 6.43174C82.9808 7.38377 80.8831 8.78297 79.1172 10.5489C77.3513 12.3148 75.9521 14.4125 75.0001 16.7212C74.048 19.03 73.562 21.5042 73.5699 24.0016V22.8716C73.6198 20.523 73.1963 18.1884 72.3247 16.007C71.4532 13.8256 70.1513 11.842 68.4968 10.1744C66.8423 8.50684 64.869 7.18941 62.6945 6.3007C60.52 5.41199 58.1888 4.97016 55.8399 5.00156C53.5059 5.00025 51.1946 5.45898 49.0381 6.35154C46.8815 7.2441 44.9221 8.55299 43.2717 10.2033C41.6213 11.8537 40.3125 13.8132 39.4199 15.9697C38.5273 18.1263 38.0686 20.4376 38.0699 22.7716V52.7716C38.0673 48.6412 36.4246 44.681 33.5031 41.7613C30.5816 38.8417 26.6203 37.2016 22.4899 37.2016C13.1499 37.2016 6.91992 44.8516 6.91992 53.4016V181.212C6.91992 217.632 36.2599 247.652 72.6999 247.652C87.1511 247.65 101.441 244.616 114.646 238.746C127.851 232.875 139.677 224.299 149.36 213.572L202.36 156.052C204.073 154.196 205 151.748 204.946 149.223C204.891 146.698 203.861 144.292 202.07 142.512C196.639 137.12 189.327 134.047 181.675 133.941C174.023 133.834 166.629 136.703 161.05 141.942V141.942Z" ></path>
    <path d="M36.0898 52.7515V113.711"  stroke-width="9.33" stroke-linecap="round" stroke-linejoin="round"></path>
    <path d="M71.6299 23.9717V113.712"  stroke-width="9.33" stroke-linecap="round" stroke-linejoin="round"></path>
    <path d="M109.54 41.0518V113.712"  stroke-width="9.33" stroke-linecap="round" stroke-linejoin="round"></path>
    <path d="M145.09 155.092H109.09C102.95 155.086 96.8813 156.407 91.2994 158.965C85.7176 161.523 80.7545 165.257 76.75 169.912"  stroke-width="9.33" stroke-linecap="round" stroke-linejoin="round"></path>
    <path d="M159.08 141.941L145.08 155.091V42.0014C145.08 32.2814 137.84 23.2815 127.3 23.2815C122.594 23.2921 118.084 25.1689 114.761 28.5003C111.437 31.8317 109.57 36.3455 109.57 41.0514V25.0014C109.57 14.7914 101.99 5.00144 90.57 5.00144C85.5309 5.00144 80.6982 7.00319 77.135 10.5664C73.5718 14.1296 71.57 18.9623 71.57 24.0014V22.8714C71.6212 20.5242 71.1993 18.1907 70.3295 16.01C69.4596 13.8293 68.1596 11.846 66.507 10.1784C64.8543 8.51085 62.8828 7.19305 60.71 6.30362C58.5372 5.41419 56.2076 4.97135 53.86 5.00144C49.1471 5.00144 44.6272 6.87363 41.2947 10.2061C37.9622 13.5387 36.09 18.0586 36.09 22.7715V52.7715C36.0953 48.6472 34.4641 44.6893 31.5544 41.7665C28.6447 38.8437 24.6942 37.1947 20.57 37.1814C11.23 37.1814 5 44.8314 5 53.3814V181.211C5 217.631 34.34 247.651 70.78 247.651C106.38 247.651 127.86 235.261 147.44 213.571L200.44 156.051C202.154 154.195 203.08 151.747 203.025 149.221C202.969 146.695 201.934 144.29 200.14 142.511V142.511C194.71 137.103 187.389 134.02 179.725 133.913C172.062 133.807 164.658 136.686 159.08 141.941V141.941Z"  stroke-width="9.33" stroke-linecap="round" stroke-linejoin="round"></path>
  </symbol>
  <symbol  xmlns="http://www.w3.org/2000/svg" viewBox="0 0 185 288" id="scissor">
    <path d="M162.83 5.19272C160.265 4.83138 157.654 4.97917 155.146 5.6276C152.638 6.27603 150.283 7.41237 148.215 8.97171C146.146 10.5311 144.406 12.4828 143.092 14.7154C141.779 16.9479 140.918 19.4174 140.56 21.9828L124.84 129.823L109.17 22.3327C108.196 17.3875 105.365 13.003 101.259 10.0797C97.1534 7.15635 92.0841 5.91612 87.0923 6.61368C82.1006 7.31124 77.5655 9.89364 74.4183 13.8305C71.2712 17.7674 69.7509 22.76 70.1698 27.7827L81.5898 109.333C78.5416 106.735 74.8143 105.064 70.8474 104.515C66.8805 103.966 62.8394 104.563 59.2006 106.235C55.5617 107.908 52.4769 110.586 50.3099 113.953C48.1428 117.321 46.9839 121.238 46.9698 125.243V144.173C46.6826 138.805 44.348 133.752 40.4469 130.054C36.5458 126.356 31.3751 124.295 25.9998 124.295C20.6245 124.295 15.4539 126.356 11.5527 130.054C7.6516 133.752 5.317 138.805 5.02979 144.173V201.033C5.02979 242.923 36.6398 279.493 78.4398 282.193C121.5 284.983 162.31 252.483 162.31 201.513C162.31 134.203 162.31 156.693 179.61 27.5127C179.978 24.9447 179.836 22.3293 179.192 19.8163C178.547 17.3034 177.413 14.9423 175.854 12.8687C174.295 10.795 172.342 9.04955 170.107 7.73234C167.872 6.41512 165.399 5.55207 162.83 5.19272Z" ></path>
    <path d="M109.06 201.483C99.7775 201.483 90.8751 205.17 84.3113 211.734C77.7475 218.298 74.0601 227.2 74.0601 236.483V246.843"  stroke-width="9.33" stroke-linecap="round" stroke-linejoin="round"></path>
    <path d="M162.83 5.19272C160.265 4.83138 157.654 4.97917 155.146 5.6276C152.638 6.27603 150.283 7.41237 148.215 8.97171C146.146 10.5311 144.406 12.4828 143.092 14.7154C141.779 16.9479 140.918 19.4174 140.56 21.9828L124.84 129.823L109.17 22.3327C108.196 17.3875 105.365 13.003 101.259 10.0797C97.1534 7.15635 92.0841 5.91612 87.0923 6.61368C82.1006 7.31124 77.5655 9.89364 74.4183 13.8305C71.2712 17.7674 69.7509 22.76 70.1698 27.7827L81.5898 109.333C78.5416 106.735 74.8143 105.064 70.8474 104.515C66.8805 103.966 62.8394 104.563 59.2006 106.235C55.5617 107.908 52.4769 110.586 50.3099 113.953C48.1428 117.321 46.9839 121.238 46.9698 125.243V144.173C46.6826 138.805 44.348 133.752 40.4469 130.054C36.5458 126.356 31.3751 124.295 25.9998 124.295C20.6245 124.295 15.4539 126.356 11.5527 130.054C7.6516 133.752 5.317 138.805 5.02979 144.173V201.033C5.02979 242.923 36.6398 279.493 78.4398 282.193C121.5 284.983 162.31 252.483 162.31 201.513C162.31 134.203 162.31 156.693 179.61 27.5127C179.978 24.9447 179.836 22.3293 179.192 19.8163C178.547 17.3034 177.413 14.9423 175.854 12.8687C174.295 10.795 172.342 9.04955 170.107 7.73234C167.872 6.41512 165.399 5.55207 162.83 5.19272Z"  stroke-width="9.33" stroke-linecap="round" stroke-linejoin="round"></path>
    <path d="M26 123.173C20.4305 123.173 15.089 125.385 11.1508 129.324C7.21249 133.262 5 138.603 5 144.173V169.783C5 175.352 7.21249 180.694 11.1508 184.632C15.089 188.57 20.4305 190.783 26 190.783V190.783C31.5695 190.783 36.911 188.57 40.8492 184.632C44.7875 180.694 47 175.352 47 169.783V144.143C46.9921 138.578 44.776 133.245 40.8386 129.313C36.9012 125.381 31.5644 123.173 26 123.173V123.173Z" ></path>
    <path d="M67.9399 104.243C62.3704 104.243 57.029 106.455 53.0907 110.393C49.1524 114.332 46.9399 119.673 46.9399 125.243V169.783C46.9399 175.352 49.1524 180.694 53.0907 184.632C57.029 188.57 62.3704 190.783 67.9399 190.783V190.783C73.5095 190.783 78.8509 188.57 82.7892 184.632C86.7274 180.694 88.9399 175.352 88.9399 169.783V125.213C88.932 119.648 86.716 114.315 82.7786 110.383C78.8412 106.451 73.5043 104.243 67.9399 104.243V104.243Z" ></path>
    <path d="M26 123.173C20.4305 123.173 15.089 125.385 11.1508 129.324C7.21249 133.262 5 138.603 5 144.173V169.783C5 175.352 7.21249 180.694 11.1508 184.632C15.089 188.57 20.4305 190.783 26 190.783V190.783C31.5695 190.783 36.911 188.57 40.8492 184.632C44.7875 180.694 47 175.352 47 169.783V144.143C46.9921 138.578 44.776 133.245 40.8386 129.313C36.9012 125.381 31.5644 123.173 26 123.173V123.173Z"  stroke-width="9.33" stroke-linecap="round" stroke-linejoin="round"></path>
    <path d="M67.9399 104.243C62.3704 104.243 57.029 106.455 53.0907 110.393C49.1524 114.332 46.9399 119.673 46.9399 125.243V169.783C46.9399 175.352 49.1524 180.694 53.0907 184.632C57.029 188.57 62.3704 190.783 67.9399 190.783V190.783C73.5095 190.783 78.8509 188.57 82.7892 184.632C86.7274 180.694 88.9399 175.352 88.9399 169.783V125.213C88.932 119.648 86.716 114.315 82.7786 110.383C78.8412 106.451 73.5043 104.243 67.9399 104.243V104.243Z"  stroke-width="9.33" stroke-linecap="round" stroke-linejoin="round"></path>
    <path d="M162.31 201.483C162.31 190.63 157.999 180.222 150.325 172.548C142.651 164.874 132.242 160.563 121.39 160.563H57.6698C56.2454 160.561 54.8348 160.841 53.5184 161.385C52.2021 161.929 51.0059 162.727 49.9983 163.734C48.9906 164.741 48.1913 165.936 47.6459 167.252C47.1005 168.568 46.8198 169.978 46.8198 171.403V171.403C46.8198 179.38 49.9889 187.031 55.63 192.673C61.2711 198.314 68.9221 201.483 76.8998 201.483H109.06" ></path>
    <path d="M162.31 201.483C162.31 190.63 157.999 180.222 150.325 172.548C142.651 164.874 132.242 160.563 121.39 160.563H57.6698C56.2454 160.561 54.8348 160.841 53.5184 161.385C52.2021 161.929 51.0059 162.727 49.9983 163.734C48.9906 164.741 48.1913 165.936 47.6459 167.252C47.1005 168.568 46.8198 169.978 46.8198 171.403V171.403C46.8198 179.38 49.9889 187.031 55.63 192.673C61.2711 198.314 68.9221 201.483 76.8998 201.483H109.06"  stroke-width="9.33" stroke-linecap="round" stroke-linejoin="round"></path>
  </symbol>
    <symbol stroke-linecap="round" stroke-linejoin="round" stroke-width="1.5" xmlns="http://www.w3.org/2000/svg" viewBox="0 0 24 24" id="settings">
    <path d="M10.325 4.317c.426-1.756 2.924-1.756 3.35 0a1.724 1.724 0 0 0 2.573 1.066c1.543-.94 3.31.826 2.37 2.37a1.724 1.724 0 0 0 1.065 2.572c1.756.426 1.756 2.924 0 3.35a1.724 1.724 0 0 0-1.066 2.573c.94 1.543-.826 3.31-2.37 2.37a1.724 1.724 0 0 0-2.572 1.065c-.426 1.756-2.924 1.756-3.35 0a1.723 1.723 0 0 0-2.573-1.066c-1.543.94-3.31-.826-2.37-2.37a1.724 1.724 0 0 0-1.065-2.572c-1.756-.426-1.756-2.924 0-3.35a1.724 1.724 0 0 0 1.066-2.573c-.94-1.543.826-3.31 2.37-2.37 1 .608 2.296.07 2.572-1.065Z"></path>
    <path d="M12 15a3 3 0 1 0 0-6 3 3 0 0 0 0 6Z"></path>
  </symbol>
  <symbol stroke-linecap="round" stroke-linejoin="round" stroke-width="1.5" xmlns="http://www.w3.org/2000/svg" viewBox="0 0 24 24" id="menu">
    <path d="M4 6h16"></path>
    <path d="M4 12h16"></path>
    <path d="M4 18h16"></path>
  </symbol>
    <symbol xmlns="http://www.w3.org/2000/svg" viewBox="0 0 511 512" id="logo">
    <path fill-rule="evenodd" clip-rule="evenodd" d="M240.099 0.593327C225.743 3.19833 208.885 10.7263 197.908 19.4353C193.231 23.1453 189.571 24.8883 179.505 28.2033C102.407 53.5893 43.2869 117.377 22.9579 197.111C17.6439 217.956 16.0589 231.219 16.0269 255.111C15.9899 282.601 18.5569 300.688 25.9639 325.125L29.4459 336.612L17.4379 360.614C1.67687 392.114 0.0928705 397.294 0.00587055 417.611C-0.0511294 430.823 0.278871 434.356 2.24287 441.544C11.1659 474.197 34.6849 498.38 67.1419 508.274C75.1009 510.7 77.4639 510.957 91.9389 510.972C105.404 510.986 109.206 510.638 115.939 508.777C131.85 504.379 148.322 494.627 159.814 482.804L164.689 477.788L174.314 481.283C200.826 490.909 225.037 495.006 255.439 495.011C285.486 495.017 308.997 491.087 335.518 481.626L346.212 477.812L351.075 482.816C362.544 494.616 379.349 504.571 394.939 508.802C406.52 511.944 430.428 511.934 441.939 508.781C450.888 506.331 464.027 500.351 471.198 495.464C488.132 483.926 501.645 465.049 508.113 443.899C510.566 435.878 510.801 433.671 510.801 418.611C510.801 403.553 510.566 401.343 508.115 393.329C503.127 377.02 494.852 363.256 483.114 351.745L477.641 346.379L481.617 335.245C486.401 321.843 490.745 304.211 493.104 288.611C495.51 272.702 495.508 238.494 493.1 222.611C490.086 202.731 483.264 177.292 478.289 167.377C475.367 161.555 468.232 160.945 464.775 166.221C463.143 168.711 463.228 169.237 467.217 181.455C476.447 209.729 478.505 221.396 479.173 249.235C479.721 272.096 478.872 282.841 475.02 301.816C472.677 313.357 466.611 333.611 465.498 333.611C465.174 333.611 459.403 328.092 452.673 321.346L440.438 309.081L442.9 298.181C446.755 281.124 447.771 269.232 447.138 248.618C446.697 234.273 445.995 227.376 444.015 217.952C432.954 165.294 403.242 122.016 358.536 93.4453L348.626 87.1113L347.931 81.6243C346.806 72.7403 343.795 62.2503 340.033 54.1083C335.863 45.0823 335.22 45.1393 351.939 53.0483C375.091 63.9993 394.756 77.9603 414.006 97.1083C425.68 108.721 439.113 125.551 446.864 138.277C451.283 145.533 454.716 147.546 459.091 145.449C462.279 143.921 464.015 140.041 463.114 136.454C462.778 135.113 459.375 129.312 455.553 123.563C425.52 78.3883 382.406 45.2493 331.492 28.2033C321.122 24.7313 317.518 22.9733 311.397 18.3983C302.004 11.3793 291.984 6.35533 280.727 3.02333C273.629 0.922327 269.342 0.353327 258.439 0.0683269C251.014 -0.126673 242.761 0.110327 240.099 0.593327ZM265.995 15.6823C275.34 16.9823 287.235 21.0703 295.104 25.6883C302.615 30.0953 317.955 45.4353 322.362 52.9463C326.98 60.8153 331.068 72.7103 332.368 82.0553C332.957 86.2903 333.439 100.04 333.439 112.611V135.466L336.074 137.538C339.569 140.288 342.985 140.156 345.984 137.156C348.366 134.775 348.439 134.266 348.439 120.156C348.439 112.156 348.703 105.611 349.026 105.611C350.473 105.611 364.781 116.263 373.197 123.606C411.865 157.344 434.606 211.023 432.086 262.611C431.528 274.054 429.082 292.762 427.893 294.686C427.622 295.125 424.888 294.162 421.818 292.547C411.062 286.889 396.855 289.197 388.524 297.956L385.11 301.546L381.161 297.979C372.712 290.345 362.408 288.523 352.939 292.988C347.601 295.506 344.898 298.025 341.566 303.59C339.503 307.035 339.411 307.07 332.211 307.159C321.666 307.29 313.961 311.956 309.171 321.111C306.516 326.185 306.288 336.621 308.73 341.263C310.367 344.374 310.354 344.436 307.664 346.142C298.908 351.695 295.121 358.188 295.014 367.836C294.942 374.262 294.822 374.587 292.306 375.14C288.562 375.963 281.752 382.101 279.184 386.968C277.541 390.083 276.998 392.847 276.995 398.111C276.991 407.016 278.486 409.915 288.146 419.738C292.272 423.932 295.213 427.633 294.682 427.961C292.669 429.205 274.464 431.661 262.939 432.243C249.303 432.932 232.543 431.505 218.451 428.453C210.226 426.672 196.45 422.867 195.681 422.164C195.539 422.034 197.078 418.369 199.102 414.02C205.504 400.259 204.865 386.022 197.383 375.692C195.764 373.457 194.439 371.436 194.439 371.202C194.439 370.967 203.929 360.05 215.527 346.943C228.384 332.414 237.553 321.159 239.018 318.111C245.757 304.081 237.447 286.923 222.343 283.684C209.833 281.001 204.584 284.26 184.417 307.228C175.558 317.318 167.88 325.838 167.356 326.162C166.832 326.486 171.136 317.233 176.921 305.6C186.887 285.558 187.438 284.125 187.417 278.28C187.383 268.594 182.405 260.231 174.128 255.95C168.823 253.207 159.66 253.03 153.784 255.558C146.547 258.671 143.54 262.321 135.486 277.766L128.366 291.421L122.783 288.059C112.251 281.717 101.595 282.55 93.2339 290.369L90.5299 292.898L87.0809 289.87C85.1849 288.205 83.0819 286.659 82.4089 286.434C80.7809 285.892 79.7189 278.875 78.8779 263.111C76.1159 211.358 98.8089 157.523 137.681 123.606C145.926 116.412 160.397 105.611 161.79 105.611C162.078 105.611 162.455 116.974 162.627 130.861C162.933 155.655 162.986 156.21 165.536 161.611C166.965 164.636 170.035 169.058 172.36 171.439C176.703 175.885 187.253 181.609 191.107 181.61C196.484 181.612 196.439 181.448 196.439 201.092C196.439 214.558 196.823 220.448 197.9 223.501C202.223 235.755 214.791 242.384 228.06 239.412C230.965 238.761 231.302 238.981 232.933 242.598C236.999 251.615 245.451 257.037 255.439 257.037C265.427 257.037 273.879 251.615 277.945 242.598C279.576 238.981 279.913 238.761 282.818 239.412C295.547 242.264 308.726 235.691 312.609 224.554C313.588 221.745 313.92 221.567 316.806 222.307C329.368 225.53 342.802 218.662 347.012 206.863C347.949 204.237 348.364 197.278 348.395 183.675C348.437 165.066 348.347 164.142 346.265 161.925C343.496 158.979 338.224 158.826 335.439 161.611C333.587 163.463 333.439 164.944 333.439 181.661C333.439 195.804 333.112 200.342 331.929 202.631C328.913 208.463 322.099 209.425 317.362 204.688L314.439 201.765L314.407 174.938C314.384 155.427 314.043 147.678 313.157 146.524C310.006 142.42 305.098 141.952 301.189 145.384C299.586 146.792 299.439 149.81 299.439 181.298C299.439 217.838 299.06 221.138 294.589 223.531C291.915 224.962 286.336 224.852 284.352 223.329C280.637 220.477 280.439 218.438 280.439 183.1V148.457L277.414 145.432C274.975 142.993 273.86 142.536 271.664 143.072C270.165 143.438 268.039 144.621 266.939 145.701C265.013 147.592 264.92 149.334 264.439 192.727L263.939 237.79L261.578 239.7C258.492 242.198 252.386 242.198 249.3 239.7L246.939 237.79L246.439 192.727C245.958 149.334 245.865 147.592 243.939 145.701C242.839 144.621 240.713 143.438 239.214 143.072C237.018 142.536 235.903 142.993 233.464 145.432L230.439 148.457V183.1C230.439 218.438 230.241 220.477 226.526 223.329C224.298 225.039 218.299 224.902 215.7 223.082C214.499 222.24 213.052 219.878 212.483 217.832C211.831 215.483 211.448 194.156 211.445 160.016C211.439 109.753 211.315 105.812 209.689 104.384C205.78 100.952 200.872 101.42 197.721 105.524C196.828 106.687 196.494 115.052 196.471 136.861C196.435 170.329 196.966 168.396 188.823 164.698C183.987 162.502 180.071 157.707 178.543 152.111C177.11 146.866 177.085 92.3043 178.51 82.0553C179.81 72.7103 183.898 60.8153 188.516 52.9463C193.13 45.0813 208.377 29.9983 216.391 25.3683C227.056 19.2073 241.635 15.0973 254.117 14.7333C256.414 14.6663 261.76 15.0933 265.995 15.6823ZM171.568 52.3613C167.8 59.8343 164.878 69.4213 163.374 79.2453L162.167 87.1253L152.3 93.4523C107.373 122.255 77.9449 165.257 66.7469 218.465C64.3499 229.857 64.0779 233.292 64.0119 253.111C63.9719 265.211 64.2639 277.218 64.6609 279.793C65.3789 284.455 65.3679 284.479 61.9719 285.6C56.2569 287.486 50.8949 293.742 45.0489 305.342C39.7259 315.907 39.6019 316.057 38.5189 313.263C37.9109 311.697 36.2069 304.272 34.7309 296.763C32.2339 284.06 32.0439 281.234 31.9989 256.111C31.9469 227.019 33.0529 217.546 38.9539 196.559C54.5189 141.2 89.4139 94.3373 137.091 64.7673C148.306 57.8113 170.501 46.8303 173.703 46.6533C174.124 46.6303 173.163 49.1983 171.568 52.3613ZM168.135 270.567C170.466 271.989 171.52 273.527 172.032 276.255C172.678 279.698 171.413 282.637 156.086 313.307C145.329 334.832 139.439 347.713 139.439 349.711C139.439 358.704 150.241 364.761 157.529 359.854C158.953 358.896 171.65 345.003 185.744 328.981C199.839 312.96 212.098 299.572 212.987 299.231C221.393 296.005 229.621 305.103 224.865 312.365C221.253 317.883 180.232 363.601 179.372 363.07C177.638 361.998 170.803 364.623 168.24 367.345C164.811 370.988 138.439 423.87 138.439 427.104C138.439 432.6 146.977 435.93 150.932 431.975C151.831 431.076 158.418 418.645 165.569 404.351L178.571 378.363L181.631 381.237C183.314 382.818 185.525 385.911 186.543 388.111C190.246 396.109 189.68 397.997 174.385 428.683C166.656 444.191 158.596 459.406 156.474 462.495C132.603 497.251 85.2219 506.71 50.2319 483.704C20.4199 464.104 7.50287 427.158 18.8409 393.92C20.1179 390.175 25.0599 379.333 29.8229 369.827L38.4839 352.543L41.7649 355.046C47.1139 359.126 52.1449 360.764 58.5239 360.504L64.3599 360.266L67.6489 365.152C74.4349 375.23 88.0329 378.608 99.2709 373.008C102.144 371.576 105.564 368.988 106.87 367.258C108.177 365.527 119.484 343.861 131.996 319.111C144.509 294.361 155.465 273.27 156.343 272.243C159.655 268.367 163.606 267.806 168.135 270.567ZM77.9839 302.066C82.1139 306.195 81.3409 309.959 72.9629 326.498C68.8519 334.615 64.5409 342.114 63.3839 343.161C62.0479 344.37 59.8089 345.066 57.2529 345.066C52.3459 345.066 48.4389 341.242 48.4389 336.439C48.4389 332.85 62.5829 303.997 65.6349 301.361C68.7109 298.704 74.9799 299.061 77.9839 302.066ZM115.984 302.066C120.36 306.441 119.52 309.466 106.976 334.537C100.377 347.725 94.5549 358.117 93.2539 359.028C87.9969 362.71 80.0729 359.507 78.8939 353.223C78.3619 350.389 79.9059 346.662 89.8279 326.832C96.1829 314.133 102.379 302.813 103.599 301.677C106.793 298.701 112.808 298.889 115.984 302.066ZM413.822 305.566C416.857 306.72 478.652 368.93 482.693 374.899C493.092 390.262 497.847 409.669 495.568 427.44C490.871 464.069 463.894 491.043 427.259 495.742C411.908 497.71 393.189 493.858 379.439 485.901C371.559 481.34 332.035 442.777 334.331 441.889C337.226 440.768 343.347 434.374 345.296 430.434L347.324 426.337L353.631 426.163C361.208 425.955 366.517 423.481 371.698 417.746C373.691 415.54 375.849 411.795 376.494 409.423C377.14 407.051 377.822 404.562 378.01 403.891C378.199 403.22 379.61 402.396 381.146 402.06C386.485 400.891 389.946 399.147 393.754 395.707C398.779 391.168 401.327 385.978 402.083 378.743C402.681 373.018 402.802 372.819 406.319 371.763C408.31 371.165 411.652 369.011 413.745 366.975L417.55 363.275L424.27 369.943C429.467 375.1 431.649 376.611 433.9 376.611C437.85 376.611 441.439 373.069 441.439 369.17C441.439 366.529 439.423 364.06 427.643 352.279C420.055 344.69 413.192 338.06 412.393 337.546C408.724 335.185 403.191 334.471 398.078 335.698C393.446 336.809 391.623 338.232 378.949 350.635C364.273 364.996 361.818 366.494 355.111 365.186C353.366 364.846 350.814 363.693 349.439 362.624L346.939 360.681L373.418 334.16C387.981 319.574 401.256 306.968 402.918 306.148C406.424 304.417 410.261 304.213 413.822 305.566ZM370.865 309.576L373.891 312.601L367.453 319.097L361.015 325.592L357.727 322.406C355.034 319.795 354.439 318.456 354.439 315.004C354.439 311.491 354.971 310.341 357.634 308.101C361.715 304.667 366.488 305.199 370.865 309.576ZM342.807 329.581L349.939 336.552L343.159 343.331L336.38 350.111L329.409 342.979C323.04 336.463 322.439 335.489 322.439 331.684C322.439 328.596 323.073 326.886 324.894 325.066C326.714 323.245 328.424 322.611 331.512 322.611C335.317 322.611 336.291 323.212 342.807 329.581ZM405.259 352.861C404.865 355.634 398.584 359.264 395.938 358.249C394.298 357.62 394.456 357.188 397.47 354.079C401.471 349.951 405.767 349.279 405.259 352.861ZM342.661 378.389C360.991 396.719 362.439 398.428 362.439 401.743C362.439 407.058 358.764 410.611 353.265 410.611C349.054 410.611 348.735 410.35 329.717 391.333C311.09 372.705 310.44 371.92 310.471 368.083C310.518 362.175 313.991 358.702 319.911 358.641C322.456 358.615 325.726 361.454 342.661 378.389ZM384.882 371.834C385.738 373.056 386.439 375.776 386.439 377.879C386.439 386.467 376.984 389.663 369.921 383.461L366.334 380.312L371.637 377.422C374.553 375.833 378.054 373.426 379.416 372.072C382.454 369.054 382.921 369.034 384.882 371.834ZM318.61 402.282C331.985 415.626 333.624 418.337 331.467 423.543C330.056 426.95 326.587 428.948 322.294 428.826C319.566 428.748 317.111 426.76 305.764 415.437C292.915 402.614 292.439 401.99 292.439 397.964C292.439 394.496 292.98 393.333 295.634 391.101C301.294 386.338 303.904 387.609 318.61 402.282ZM201.939 440.159C218.573 445.052 230.025 446.776 249.685 447.345C269.235 447.911 280.509 446.907 297.926 443.048L308.913 440.614L321.176 452.847C327.921 459.576 333.439 465.352 333.439 465.682C333.439 466.858 309.161 473.837 296.156 476.399C283.955 478.803 280.863 479.007 255.939 479.051C222.984 479.11 213.094 477.637 184.439 468.403C179.214 466.72 174.613 465.158 174.215 464.934C173.817 464.709 176.738 458.013 180.706 450.054C186.264 438.907 188.268 435.736 189.43 436.252C190.26 436.621 195.889 438.379 201.939 440.159Z"></path>
  </symbol>
  <symbol stroke-linecap="round" stroke-linejoin="round" stroke-width="1.5" xmlns="http://www.w3.org/2000/svg" viewBox="0 0 24 24" id="close">
    <path d="M18 6 6 18"></path>
    <path d="m6 6 12 12"></path>
  </symbol>
</svg>